<svg width="20" height="20" viewBox="0 0 20 20" fill="none" xmlns="http://www.w3.org/2000/svg">
<path d="M8.11328 0.08218C7.90625 0.191555 7.83984 0.36343 7.67578 1.19156C7.60156 1.57437 7.52734 1.90249 7.50781 1.91421C7.49219 1.92984 7.32422 1.99624 7.12891 2.06656C6.9375 2.13687 6.61328 2.27358 6.41016 2.36734C6.21094 2.46109 6.02344 2.53921 6 2.53921C5.97656 2.53921 5.66797 2.34781 5.3125 2.11343C4.95703 1.87515 4.62109 1.67202 4.55859 1.6564C4.26563 1.58609 4.23828 1.60562 2.9375 2.90249C1.64844 4.19155 1.60156 4.25015 1.65625 4.53921C1.66797 4.60952 1.87109 4.95718 2.10938 5.31265C2.34375 5.66812 2.53906 5.97671 2.53906 6.00015C2.53906 6.02359 2.45313 6.22671 2.34766 6.44937C2.24609 6.67202 2.10938 6.99624 2.05078 7.16812C1.98828 7.33999 1.92969 7.49234 1.91406 7.50796C1.90234 7.52749 1.57422 7.60171 1.19141 7.67593C0.355469 7.83999 0.1875 7.9064 0.078125 8.12124C0.00390625 8.27359 0 8.3439 0 9.96109C0 11.5783 0.00390625 11.6486 0.078125 11.8009C0.1875 12.0158 0.355469 12.0822 1.19141 12.2462C1.57422 12.3205 1.90234 12.3947 1.91406 12.4142C1.92969 12.4298 1.98828 12.5822 2.05078 12.7541C2.10938 12.9259 2.24609 13.2501 2.34766 13.4728C2.45313 13.6955 2.53906 13.8986 2.53906 13.922C2.53906 13.9455 2.34375 14.2541 2.10938 14.6095C1.87109 14.965 1.66797 15.3126 1.65625 15.383C1.60156 15.672 1.64844 15.7306 2.9375 17.0197C4.23828 18.3166 4.26563 18.3361 4.55859 18.2658C4.62109 18.2501 4.96094 18.0431 5.32422 17.8048L5.97656 17.3712V15.5392V13.7072L5.77344 13.465C5.17578 12.7501 4.79297 11.9416 4.58594 10.9767C4.47656 10.4611 4.48438 9.4064 4.60547 8.87124C4.85938 7.70718 5.35547 6.82046 6.19922 6.01577C6.98047 5.26577 7.88281 4.80093 8.96484 4.58609C9.48828 4.48062 10.5117 4.48843 11.043 4.60171C12.1094 4.83218 12.957 5.27749 13.7188 6.01187C14.5664 6.82437 15.0742 7.73062 15.3203 8.87906C15.4336 9.41031 15.4414 10.4337 15.3398 10.9533C15.1484 11.9025 14.75 12.7423 14.1484 13.465L13.9453 13.7072V15.5392V17.3712L14.6016 17.8048C14.9609 18.0431 15.3008 18.2501 15.3633 18.2658C15.6563 18.3361 15.6836 18.3166 16.9844 17.0197C18.2734 15.7306 18.3203 15.672 18.2656 15.383C18.2539 15.3126 18.0508 14.965 17.8125 14.6095C17.5781 14.2541 17.3828 13.9455 17.3828 13.922C17.3828 13.8986 17.4609 13.7111 17.5547 13.5119C17.6484 13.3087 17.7852 12.9845 17.8555 12.7931C17.9258 12.5978 17.9922 12.4298 18.0078 12.4142C18.0195 12.3947 18.3477 12.3205 18.7305 12.2462C19.5664 12.0822 19.7344 12.0158 19.8438 11.8009C19.918 11.6486 19.9219 11.5783 19.9219 9.96109C19.9219 8.37124 19.918 8.26968 19.8477 8.12906C19.8047 8.04702 19.7266 7.94937 19.668 7.91421C19.6133 7.87906 19.2227 7.77749 18.8008 7.69546C18.375 7.60952 18.0195 7.52749 18.0078 7.50796C17.9922 7.49234 17.9336 7.33999 17.8711 7.16812C17.8125 6.99624 17.6758 6.67202 17.5742 6.44937C17.4688 6.22671 17.3828 6.02359 17.3828 6.00015C17.3828 5.97671 17.5742 5.66812 17.8086 5.31265C18.0469 4.95718 18.25 4.62124 18.2656 4.55874C18.3359 4.26577 18.3164 4.23843 17.0195 2.93765C15.7305 1.64858 15.6719 1.60171 15.3828 1.6564C15.3125 1.66812 14.9648 1.87124 14.6094 2.10952C14.2539 2.3439 13.9414 2.53921 13.9141 2.53921C13.8867 2.53921 13.7305 2.4728 13.5625 2.38687C13.3984 2.30484 13.0781 2.17202 12.8516 2.08999C12.625 2.00796 12.4297 1.92984 12.4141 1.91421C12.3945 1.90249 12.3203 1.57437 12.2461 1.19156C12.082 0.355618 12.0156 0.187649 11.8008 0.0782738C11.6484 0.00405502 11.5781 0.000148773 9.95313 0.000148773C8.33984 0.00405502 8.25391 0.00796127 8.11328 0.08218Z" fill="white" fill-opacity="0.5"/>
<path d="M8.17223 6.71875C7.99254 6.79297 7.5941 7.09375 7.3441 7.34375C6.0316 8.65234 5.89488 10.7422 7.01988 12.2187C7.32848 12.6211 7.79723 13.0156 8.23473 13.2383L8.39879 13.3203V16.4297C8.39879 19.4648 8.39879 19.5391 8.47691 19.6875C8.52769 19.7891 8.60972 19.8711 8.71129 19.9219C8.85582 19.9961 8.93785 20 9.96129 20C10.9847 20 11.0668 19.9961 11.2113 19.9219C11.3128 19.8711 11.3949 19.7891 11.4457 19.6875C11.5238 19.5391 11.5238 19.4648 11.5238 16.4297V13.3203L11.6918 13.2383C12.5746 12.7891 13.2933 11.8828 13.5589 10.8789C13.6839 10.418 13.6839 9.56641 13.5628 9.08594C13.4574 8.66406 13.2269 8.16797 12.9808 7.82031C12.598 7.28515 11.93 6.73047 11.6136 6.69531C11.4261 6.67187 11.2347 6.78515 11.1527 6.96094C11.1214 7.03125 11.0238 7.59765 10.9378 8.22266C10.8519 8.84375 10.7699 9.40234 10.7582 9.46094L10.7347 9.57031H9.96129H9.18785L9.16441 9.46094C9.15269 9.40234 9.07066 8.84375 8.98472 8.22266C8.89879 7.59765 8.80113 7.03125 8.76988 6.96094C8.66832 6.73828 8.39879 6.6289 8.17223 6.71875Z" fill="white" fill-opacity="0.5"/>
</svg>
