<svg xmlns="http://www.w3.org/2000/svg" width="20" height="21" viewBox="0 0 20 21" fill="none">
  <path d="M10.6901 2.25674C10.473 2.1577 10.2371 2.10645 9.99842 2.10645C9.75977 2.10645 9.52389 2.1577 9.30676 2.25674L2.16509 5.50674C2.01721 5.57195 1.89149 5.67874 1.80323 5.81412C1.71496 5.9495 1.66797 6.10763 1.66797 6.26924C1.66797 6.43086 1.71496 6.58898 1.80323 6.72436C1.89149 6.85974 2.01721 6.96654 2.16509 7.03174L9.31509 10.2901C9.53223 10.3891 9.7681 10.4404 10.0068 10.4404C10.2454 10.4404 10.4813 10.3891 10.6984 10.2901L17.8484 7.04008C17.9963 6.97487 18.122 6.86808 18.2103 6.7327C18.2986 6.59731 18.3455 6.43919 18.3455 6.27758C18.3455 6.11596 18.2986 5.95784 18.2103 5.82246C18.122 5.68707 17.9963 5.58028 17.8484 5.51508L10.6901 2.25674Z" stroke="white" stroke-opacity="1" stroke-width="1.66667" stroke-linecap="round" stroke-linejoin="round"/>
  <path d="M1.66797 10.4404C1.66758 10.5998 1.7129 10.756 1.79857 10.8904C1.88424 11.0248 2.00665 11.1318 2.1513 11.1988L9.31797 14.4571C9.53397 14.5549 9.76836 14.6055 10.0055 14.6055C10.2426 14.6055 10.477 14.5549 10.693 14.4571L17.843 11.2071C17.9905 11.1408 18.1155 11.033 18.2028 10.8969C18.2901 10.7607 18.3359 10.6021 18.3346 10.4404" stroke="white" stroke-opacity="1" stroke-width="1.66667" stroke-linecap="round" stroke-linejoin="round"/>
  <path d="M1.66797 14.6074C1.66758 14.7668 1.7129 14.923 1.79857 15.0574C1.88424 15.1918 2.00665 15.2988 2.1513 15.3658L9.31797 18.6241C9.53397 18.7219 9.76836 18.7725 10.0055 18.7725C10.2426 18.7725 10.477 18.7219 10.693 18.6241L17.843 15.3741C17.9905 15.3078 18.1155 15.2 18.2028 15.0639C18.2901 14.9277 18.3359 14.7691 18.3346 14.6074" stroke="white" stroke-opacity="1" stroke-width="1.66667" stroke-linecap="round" stroke-linejoin="round"/>
</svg>